# xmcd CD database file
# Copyright (C) 1997 Ti Kan
# 
# Track frame offsets:
#     150
#     17690
#     37597
#     55040
#     70485
#     86600
#     100970
#     117297
#     134837
#     151197
#     164485
#     178412
#     196457
#     210087
# 
# Disc length: 3017 seconds
# 
# Revision: 1
# Processed by: cddbd v1.4b41PL1 Copyright (c) Steve Scherf et al.
# Submitted via: DiscPlay 4.0.4
# 
DISCID=bc0bc70e
DTITLE=Gian e Giovani - Gian and Giovani
DYEAR=1900
DGENRE=
TTITLE0=Te Amo, Menina
TTITLE1=Sei Que Me Ama
TTITLE2=Medo
TTITLE3=Um Beijo S  N o D 
TTITLE4=Papel de Chiclete
TTITLE5=Amor Demais
TTITLE6=Preciso Dos Seus Olhos
TTITLE7=O Amor Acabou
TTITLE8=Um, Dois, Tr s
TTITLE9=Casinha De Palha
TTITLE10=A Voz Do Velho
TTITLE11=Nossa Senhora Aparecida
TTITLE12=Samba E Cacha a
TTITLE13=T  Pensando Nela
EXTD=
EXTT0=
EXTT1=
EXTT2=
EXTT3=
EXTT4=
EXTT5=
EXTT6=
EXTT7=
EXTT8=
EXTT9=
EXTT10=
EXTT11=
EXTT12=
EXTT13=
PLAYORDER=
